<svg width="45" height="45" xmlns="http://www.w3.org/2000/svg"><path d="M16.809 5.366v6.066c0 .027-.022.043-.048.035-.25-.08-.509-.154-.777-.225a.466.466 0 0 0-.098-.012H1.734l-.1-.003c-1.396-.042-1.4 1.957.006 1.913l.1-.002h2.37a.05.05 0 0 1 .05.05v11.699c0 .027.01.07.023.095.15.287 1.053 1.862 2.899 1.89h.1c1.84-.028 2.758-1.594 2.899-1.888a.358.358 0 0 0 .019-.047V14.4c0-.028.022-.051.05-.052 10.439-.401 6.897 10.552 2.568 13.85a.061.061 0 0 0-.017.075c3.32 6.373 4.755 8.304 9.58 13.287.018.02.056.036.084.036h9.33a.05.05 0 0 0 .05-.05l.022-1.283a.076.076 0 0 0-.046-.067c-6.1-2.312-9.494-7.621-13.447-12.54a.046.046 0 0 1 .01-.067c2.109-1.498 4.441-5.346 4.463-9.01V6.578c0-.028.022-.051.05-.052 10.439-.401 6.897 10.55 2.568 13.848a.061.061 0 0 0-.017.075c3.32 6.373 4.755 8.306 9.579 13.289.019.02.057.036.085.036h9.33a.05.05 0 0 0 .05-.05l.022-1.283a.076.076 0 0 0-.046-.068c-6.1-2.312-9.494-7.623-13.448-12.541a.046.046 0 0 1 .01-.067c3.881-2.756 8.687-13.468-2.299-16.348a.466.466 0 0 0-.098-.012H14.38l-.1-.003c-1.312-.033-1.478 1.966.006 1.915l.1-.002h2.372a.05.05 0 0 1 .05.05z" stroke="#000" stroke-width=".7"/></svg>